<?xml version="1.0" encoding="utf-8"?>
<!-- Generator: Adobe Illustrator 21.1.0, SVG Export Plug-In . SVG Version: 6.00 Build 0)  -->
<svg version="1.1" id="Layer_1" xmlns="http://www.w3.org/2000/svg" xmlns:xlink="http://www.w3.org/1999/xlink" x="0px" y="0px"
	 viewBox="0 0 152.8 14.3" style="enable-background:new 0 0 152.8 14.3;" xml:space="preserve">
<style type="text/css">
	.st0{fill:#231F20;}
</style>
<path class="st0" d="M143.1,14h0.3c0.1-0.1,0.1-0.2,0.2-0.3s0.2-0.1,0.4-0.1s0.5,0.1,0.8,0.2c0.3,0.1,0.6,0.2,0.8,0.3
	s0.4,0.1,0.6,0.1c0.2,0,0.4,0.1,0.5,0.1c0.2,0,0.4,0,0.6,0c0.2,0,0.4,0,0.7,0c0.8,0,1.4-0.1,2-0.4c0.6-0.2,1.1-0.6,1.5-1
	s0.7-0.9,1-1.4c0.2-0.5,0.3-1.1,0.3-1.7c0-0.6-0.1-1.2-0.4-1.6s-0.5-0.8-0.9-1c-0.4-0.3-0.7-0.4-1.1-0.6c-0.4-0.1-0.7-0.2-0.9-0.3
	l-2.3-0.7c-0.3-0.1-0.7-0.2-1-0.4c-0.3-0.1-0.6-0.3-0.9-0.5c-0.3-0.2-0.5-0.4-0.6-0.7c-0.2-0.3-0.2-0.6-0.2-1c0-0.5,0.1-0.9,0.3-1.3
	c0.2-0.3,0.5-0.6,0.8-0.8s0.7-0.3,1-0.4c0.4-0.1,0.7-0.1,1-0.1c0.5,0,1,0.1,1.4,0.3s0.8,0.5,1.1,0.8s0.5,0.7,0.7,1.1
	c0.2,0.4,0.3,0.9,0.4,1.3h0.2V0.4h-0.3c-0.1,0.2-0.2,0.3-0.2,0.3c-0.1,0-0.2,0.1-0.3,0.1c-0.2,0-0.4,0-0.5-0.1
	c-0.2-0.1-0.4-0.2-0.6-0.3c-0.2-0.1-0.5-0.2-0.8-0.3S148,0,147.6,0c-0.6,0-1.2,0.1-1.7,0.3s-1,0.5-1.3,0.8c-0.4,0.4-0.7,0.8-0.9,1.3
	s-0.3,1-0.3,1.6c0,0.9,0.3,1.6,0.8,2.1s1.3,0.9,2.3,1.3l2.2,0.7c0.3,0.1,0.6,0.2,0.9,0.3c0.3,0.1,0.6,0.3,0.8,0.5
	c0.3,0.2,0.5,0.5,0.6,0.8c0.2,0.3,0.2,0.7,0.2,1.1c0,0.3-0.1,0.6-0.2,1c-0.1,0.4-0.3,0.7-0.5,1c-0.3,0.3-0.6,0.6-1,0.8
	s-1,0.3-1.7,0.3c-0.2,0-0.5,0-0.8,0s-0.6-0.1-0.9-0.1c-0.3-0.1-0.6-0.2-0.9-0.4c-0.3-0.2-0.6-0.4-0.8-0.7c-0.3-0.3-0.5-0.7-0.7-1.2
	s-0.4-1.1-0.5-1.7H143L143.1,14L143.1,14z M129.4,14H141V9.8h-0.2c0,0.3-0.1,0.7-0.3,1.1c-0.1,0.4-0.4,0.9-0.6,1.3
	c-0.3,0.4-0.7,0.8-1.1,1.1c-0.5,0.3-1,0.5-1.7,0.5h-3.6V6.9h1.5c0.5,0,0.8,0.1,1.1,0.2c0.3,0.2,0.5,0.4,0.7,0.6
	c0.2,0.3,0.3,0.6,0.4,0.9c0.1,0.3,0.2,0.7,0.3,1.1h0.2V3.8h-0.2c-0.1,0.6-0.3,1-0.4,1.4c-0.1,0.4-0.3,0.6-0.5,0.9
	c-0.2,0.2-0.5,0.4-0.8,0.4c-0.3,0.1-0.7,0.1-1.1,0.1h-1.2V0.7h3.2c0.5,0,1,0.1,1.3,0.2c0.4,0.1,0.7,0.3,1,0.6s0.5,0.6,0.7,1
	s0.4,0.8,0.5,1.3h0.2V0.5h-10.9v0.3h2.1v13.1h-2.1L129.4,14L129.4,14z M115.4,14h4.5v-0.3h-2.1V1.4l0,0l8,12.8h0.4V0.6h2.1V0.3h-4.5
	v0.3h2.1v10.1l0,0l-6.5-10.4h-4.1v0.3h2.1v13.1h-2.1L115.4,14L115.4,14z M108.2,14h6.2v-0.3h-2.1V0.6h2.1V0.3h-6.2v0.3h2.1v13.1
	h-2.1V14z M86.3,0.6H88l4.9,13.7h0.5l3.3-9.2l0,0l3.3,9.2h0.5l4.9-13.6h1.7V0.4H103v0.3h2l-4,11.1l0,0L97.1,0.7h2.1V0.4h-5.7v0.3
	h1.6l1.5,4l-2.5,7l0,0L90,0.6h2V0.3h-5.8v0.3H86.3z M69.2,14h6.2v-0.3h-2.1V7.1h1.5c0.5,0,0.8,0.1,1.1,0.2c0.3,0.2,0.5,0.4,0.7,0.6
	c0.2,0.3,0.3,0.6,0.4,0.9c0.1,0.3,0.2,0.7,0.3,1.1h0.2V4h-0.2c-0.1,0.6-0.3,1-0.4,1.4S76.6,6,76.4,6.3c-0.2,0.2-0.5,0.4-0.8,0.4
	c-0.3,0.1-0.6,0.1-1.1,0.1h-1.2V0.6h3.2c0.5,0,1,0.1,1.3,0.2c0.4,0.1,0.7,0.3,1,0.6s0.5,0.6,0.7,1s0.4,0.8,0.5,1.3h0.2V0.4h-11v0.3
	h2.1v13.1h-2.1V14z M55.4,9.8c0.3,0.9,0.8,1.6,1.4,2.3c0.6,0.7,1.3,1.2,2.1,1.6s1.7,0.6,2.7,0.6c0.9,0,1.8-0.2,2.6-0.6
	s1.5-0.9,2.1-1.6c0.6-0.7,1.1-1.4,1.4-2.3s0.5-1.7,0.5-2.6c0-1-0.2-2-0.6-2.8c-0.4-0.9-0.9-1.6-1.5-2.3C65.5,1.5,64.8,1,64,0.6
	c-0.8-0.4-1.6-0.5-2.5-0.5c-0.8,0-1.6,0.2-2.4,0.5C58.3,1,57.6,1.5,57,2.1s-1.1,1.4-1.5,2.3c-0.4,0.9-0.6,1.8-0.6,2.8
	C54.9,8.1,55,9,55.4,9.8 M57.2,4.6c0.1-0.8,0.3-1.6,0.7-2.2c0.3-0.6,0.8-1.2,1.4-1.5c0.6-0.4,1.3-0.6,2.3-0.6c0.9,0,1.7,0.2,2.3,0.6
	c0.6,0.4,1,0.9,1.4,1.5s0.5,1.4,0.7,2.2c0.1,0.8,0.2,1.7,0.2,2.5c0,1.1-0.1,2.1-0.2,3c-0.2,0.9-0.4,1.6-0.8,2.1
	c-0.4,0.6-0.8,1-1.4,1.3s-1.3,0.4-2.1,0.4s-1.5-0.1-2.1-0.4c-0.6-0.3-1-0.7-1.4-1.3s-0.6-1.3-0.8-2.1c-0.2-0.9-0.2-1.9-0.2-3
	C57.1,6.3,57.1,5.4,57.2,4.6 M39.3,14h6.2v-0.3h-2.1V0.6h1.1c0.3,0,0.5,0,0.9,0.1c0.3,0,0.6,0.2,1,0.4c0.3,0.2,0.6,0.5,0.9,1
	c0.3,0.4,0.6,1,0.8,1.8h0.2V0.4H36.6v3.5h0.2c0.2-0.8,0.5-1.4,0.8-1.8c0.3-0.4,0.6-0.8,0.9-1c0.3-0.2,0.6-0.3,1-0.4
	c0.3,0,0.6-0.1,0.9-0.1h1.1v13.1h-2.1V14H39.3z M26.2,14h0.3c0.1-0.1,0.1-0.2,0.2-0.3s0.2-0.1,0.4-0.1c0.2,0,0.5,0.1,0.8,0.2
	c0.3,0.1,0.6,0.2,0.8,0.3c0.2,0.1,0.4,0.1,0.6,0.1s0.4,0.1,0.5,0.1c0.2,0,0.4,0,0.6,0s0.4,0,0.7,0c0.8,0,1.4-0.1,2-0.4
	c0.6-0.2,1.1-0.6,1.5-1s0.7-0.9,1-1.4c0.2-0.5,0.3-1.1,0.3-1.7c0-0.6-0.1-1.2-0.4-1.6c-0.2-0.4-0.5-0.8-0.9-1
	c-0.4-0.3-0.7-0.4-1.1-0.6c-0.4-0.1-0.7-0.2-0.9-0.3l-2.3-0.7c-0.3-0.1-0.7-0.2-1-0.4c-0.3-0.1-0.6-0.3-0.9-0.5S27.9,4.3,27.8,4
	c-0.2-0.3-0.2-0.6-0.2-1c0-0.5,0.1-0.9,0.3-1.3c0.2-0.3,0.5-0.6,0.8-0.8s0.7-0.3,1-0.4c0.4-0.1,0.7-0.1,1-0.1c0.5,0,1,0.1,1.4,0.3
	s0.8,0.5,1.1,0.8s0.5,0.7,0.7,1.1c0.2,0.4,0.3,0.9,0.4,1.3h0.2V0.4h-0.3C34.1,0.6,34,0.7,34,0.7c-0.1,0-0.2,0.1-0.3,0.1
	c-0.2,0-0.4,0-0.5-0.1c-0.2-0.1-0.4-0.2-0.6-0.3s-0.5-0.2-0.8-0.3S31.1,0,30.7,0c-0.6,0-1.2,0.1-1.7,0.3s-1,0.5-1.3,0.8
	c-0.4,0.4-0.7,0.8-0.9,1.3c-0.2,0.5-0.3,1-0.3,1.6c0,0.9,0.3,1.6,0.8,2.1s1.3,0.9,2.3,1.3l2.2,0.7c0.3,0.1,0.6,0.2,0.8,0.3
	c0.3,0.1,0.6,0.3,0.8,0.5c0.3,0.2,0.5,0.5,0.6,0.8c0.2,0.3,0.2,0.7,0.2,1.1c0,0.3-0.1,0.6-0.2,1c-0.1,0.4-0.3,0.7-0.5,1
	c-0.3,0.3-0.6,0.6-1,0.8s-1,0.3-1.7,0.3c-0.2,0-0.5,0-0.8,0s-0.6-0.1-0.9-0.1c-0.3-0.1-0.6-0.2-0.9-0.4s-0.6-0.4-0.8-0.7
	c-0.3-0.3-0.5-0.7-0.7-1.2s-0.4-1.1-0.5-1.7H26V14H26.2z M12.4,14h11.7V9.8h-0.2c0,0.3-0.1,0.7-0.3,1.1c-0.1,0.4-0.4,0.9-0.6,1.3
	c-0.3,0.4-0.7,0.8-1.1,1.1c-0.5,0.3-1,0.5-1.7,0.5h-3.6V6.9H18c0.5,0,0.8,0.1,1.1,0.2c0.3,0.2,0.5,0.4,0.7,0.6
	C20,8,20.1,8.3,20.2,8.6c0.1,0.3,0.2,0.7,0.3,1.1h0.2V3.8h-0.2c-0.1,0.6-0.3,1-0.4,1.4s-0.3,0.6-0.5,0.9c-0.2,0.2-0.5,0.4-0.8,0.4
	c-0.3,0.1-0.6,0.1-1.1,0.1h-1.2V0.7h3.2c0.5,0,1,0.1,1.3,0.2c0.4,0.1,0.7,0.3,1,0.6s0.5,0.6,0.7,1s0.4,0.8,0.5,1.3h0.2V0.5h-11v0.3
	h2.1v13.1h-2.1V14z M0,14h3.3c0.2,0,0.4,0,0.6,0c0.2,0,0.4,0,0.6,0s0.4,0,0.5,0s0.3,0,0.5,0c0.9,0,1.6-0.1,2.3-0.3s1.2-0.5,1.6-0.8
	c0.4-0.3,0.8-0.8,1-1.2c0.2-0.5,0.3-1,0.3-1.6c0-0.5-0.1-1-0.4-1.5c-0.2-0.4-0.6-0.8-0.9-1.1C9,7.2,8.6,7,8.1,6.8S7.2,6.5,6.7,6.5
	l0,0c0.4,0,0.9-0.2,1.3-0.3C8.4,6,8.8,5.8,9.1,5.6C9.4,5.3,9.7,5,9.8,4.7C10,4.3,10.1,4,10.1,3.5c0-0.3-0.1-0.6-0.2-1
	C9.8,2.1,9.5,1.8,9.2,1.4C9,1.1,8.6,0.9,8,0.6C7.4,0.4,6.6,0.3,5.7,0.3c-0.2,0-0.4,0-0.6,0s-0.4,0-0.6,0s-0.4,0-0.6,0
	c-0.2,0-0.4,0-0.6,0H0v0.3h2.1v13.1H0V14z M4,6.8h2.1C7,6.8,7.6,7.1,8,7.7c0.4,0.6,0.7,1.4,0.7,2.4c0,0.7-0.1,1.3-0.2,1.8
	c-0.1,0.5-0.3,0.8-0.6,1.1c-0.3,0.3-0.6,0.5-1.1,0.6c-0.4,0.1-0.9,0.2-1.5,0.2c-0.3,0-0.6,0-0.8,0c-0.2,0-0.4,0-0.5,0V6.8z M4,0.6
	c0.2,0,0.4,0,0.6,0s0.5,0,0.7,0c0.3,0,0.7,0,1,0.1s0.6,0.2,0.9,0.4S7.7,1.6,7.9,2s0.3,0.9,0.3,1.6c0,0.6-0.1,1.1-0.2,1.5
	C7.9,5.5,7.7,5.8,7.5,6S7,6.4,6.7,6.5s-0.6,0.1-1,0.1H4V0.6z"/>
</svg>
